<svg width="20" height="20" viewBox="0 0 20 20" fill="none" xmlns="http://www.w3.org/2000/svg">
<path d="M8.95245 4.25361C9.29113 4.20354 9.64051 4.17668 10.0003 4.17668C14.2545 4.17668 17.0461 7.93071 17.9839 9.41569C18.0974 9.59543 18.1542 9.68529 18.1859 9.8239C18.2098 9.928 18.2098 10.0922 18.1859 10.1963C18.1541 10.3349 18.097 10.4254 17.9827 10.6063C17.7328 11.0018 17.3518 11.5576 16.8471 12.1604M5.6036 5.60587C3.80187 6.82809 2.57871 8.52616 2.01759 9.41441C1.90357 9.5949 1.84656 9.68515 1.81478 9.82374C1.79091 9.92784 1.7909 10.092 1.81476 10.1961C1.84652 10.3347 1.90328 10.4246 2.01678 10.6043C2.95462 12.0893 5.74618 15.8433 10.0003 15.8433C11.7157 15.8433 13.1932 15.233 14.4073 14.4072M2.50035 2.51001L17.5003 17.51M8.23258 8.24224C7.78017 8.69465 7.50035 9.31965 7.50035 10.01C7.50035 11.3907 8.61963 12.51 10.0003 12.51C10.6907 12.51 11.3157 12.2302 11.7681 11.7778" stroke="#2D413D" stroke-width="1.66667" stroke-linecap="round" stroke-linejoin="round"/>
</svg>
