<svg version="1.0" xmlns="http://www.w3.org/2000/svg" width="20pt" height="20pt" viewBox="0 0 120 100.000000" preserveAspectRatio="xMidYMid meet" >
	<g transform="translate(0.000000,100.000000) scale(0.100000,-0.100000)" fill="#8D9895" stroke="none">
		<path d="M180 697 c-71 -23 -140 -120 -140 -197 0 -80 70 -175 146 -198 23 -6 85 -12 138 -12 l96 0 0 40 0 40 -77 0 c-107 1 -153 13 -185 50 -23 24 -28 40 -28 80 0 41 5 56 29 82 29 33 30 33 143 38 l113 5 3 43 3 42 -103 -1 c-57 -1 -119 -6 -138 -12z" />
		<path d="M582 668 l3 -43 113 -5 c113 -5 114 -5 143 -38 24 -26 29 -41 29 -82 0 -40 -5 -56 -27 -80 -33 -37 -79 -49 -185 -50 l-78 0 0 -41 0 -41 113 4 c89 2 120 7 151 24 85 44 131 143 108 231 -16 59 -56 110 -108 137 -31 17 -62 22 -152 24 l-113 4 3 -44z" />
		<path d="M290 500 l0 -40 210 0 210 0 0 40 0 40 -210 0 -210 0 0 -40z" />
	</g>
</svg>